PathFileType	4	(X/Y/Z)	..\data\2014019\dynamic\2014019_C5_03.trc
DataRate	CameraRate	NumFrames	NumMarkers	Units	OrigDataRate	OrigDataStartFrame	OrigNumFrames
100.000000	100.000000	4	52	mm	100.000000	53	142
Frame#	Time	L_IAS			L_IPS			R_IPS			R_IAS			L_FTC			L_FLE			L_FME			L_FAX			L_TTC			L_FAL			L_TAM			L_FCC			L_FM1			L_FM2			L_FM5			R_FTC			R_FLE			R_FME			R_FAX			R_TTC			R_FAL			R_TAM			R_FCC			R_FM1			R_FM2			R_FM5			CV7			TV10			SXS			SJN			L_SIA			L_SRS			L_SAA			L_SAE			L_HLE			L_HME			L_UOA			L_RSP			L_UHE			L_HM2			L_HM5			R_SIA			R_SRS			R_SAA			R_SAE			R_HLE			R_HME			R_UOA			R_RSP			R_UHE			R_HM2			R_HM5			
		X1	Y1	Z1	X2	Y2	Z2	X3	Y3	Z3	X4	Y4	Z4	X5	Y5	Z5	X6	Y6	Z6	X7	Y7	Z7	X8	Y8	Z8	X9	Y9	Z9	X10	Y10	Z10	X11	Y11	Z11	X12	Y12	Z12	X13	Y13	Z13	X14	Y14	Z14	X15	Y15	Z15	X16	Y16	Z16	X17	Y17	Z17	X18	Y18	Z18	X19	Y19	Z19	X20	Y20	Z20	X21	Y21	Z21	X22	Y22	Z22	X23	Y23	Z23	X24	Y24	Z24	X25	Y25	Z25	X26	Y26	Z26	X27	Y27	Z27	X28	Y28	Z28	X29	Y29	Z29	X30	Y30	Z30	X31	Y31	Z31	X32	Y32	Z32	X33	Y33	Z33	X34	Y34	Z34	X35	Y35	Z35	X36	Y36	Z36	X37	Y37	Z37	X38	Y38	Z38	X39	Y39	Z39	X40	Y40	Z40	X41	Y41	Z41	X42	Y42	Z42	X43	Y43	Z43	X44	Y44	Z44	X45	Y45	Z45	X46	Y46	Z46	X47	Y47	Z47	X48	Y48	Z48	X49	Y49	Z49	X50	Y50	Z50	X51	Y51	Z51	X52	Y52	Z52	

54	0.53	-403.9852294921876	908.2149658203127	104.6821670532226	-606.6758422851564	975.6038208007815	186.6876373291015	-609.1929931640626	960.9963378906252	284.49560546875	-400.0480346679689	921.1821289062502	334.8830871582031	-501.9190979003907	860.0625000000002	25.0815982818603	-580.5817871093751	450.750701904297	72.82518768310541	-592.6369628906251	441.392547607422	207.4057006835937	-635.3227539062501	413.3365783691407	69.54611206054682	-593.0759887695314	368.5406188964844	116.7989273071289	-878.757263183594	163.1280364990235	110.7159881591796	-839.8740844726565	163.1770324707032	199.0052185058593	-933.1704101562502	166.7012786865235	155.8624877929687	-822.2715454101565	42.62375640869141	227.8623046874999	-801.0522460937502	39.2775993347168	175.5667724609374	-834.9873657226565	31.34990692138673	119.9972763061523	-491.9580688476564	836.633239746094	429.1122436523438	-326.6888732910157	460.7072143554689	347.7803039550781	-340.4326477050782	450.6384582519532	210.8558044433594	-330.3221740722657	400.4168701171876	350.1476440429688	-273.4802856445314	404.2185668945314	288.4468383789062	-268.2303161621095	66.66234588623048	296.5750427246094	-252.7186126708985	86.10213470458986	206.733627319336	-304.5071411132814	16.71841621398926	239.7857513427735	-111.6683197021485	53.91978454589845	215.2528076171876	-109.5138626098633	65.46008300781251	271.8624572753907	-144.4300384521485	36.83266067504884	318.7945556640626	-572.2154541015626	1453.650756835938	223.80908203125	-630.1010131835939	1237.91162109375	216.7267303466797	-397.7493591308595	1141.856689453125	228.8617248535156	-446.0071716308595	1369.903564453125	227.1407928466797	-634.9229125976564	1274.728515625	134.9107208251953	-598.9543457031251	1399.551147460938	108.1294937133789	-560.0654907226564	1394.902587890625	46.27392196655267	-512.8938598632814	1416.382202148438	42.72889328002924	-438.9905090332032	1088.660888671875	-27.12870979309088	-467.3254699707032	1069.353881835938	34.38663482666011	-443.779510498047	1047.06689453125	6.408392429351754	-187.3294830322266	1114.2939453125	24.81594467163085	-196.3335876464844	1057.707885742188	-17.75824165344241	-100.2319030761719	1126.155639648438	20.11711692810058	-112.2883071899414	1028.21728515625	-7.120845317840591	-643.4130249023439	1265.365844726563	282.7609252929688	-610.9904174804689	1398.997192382813	315.9306945800781	-576.4627685546876	1405.987670898438	380.5454406738281	-540.0101928710939	1421.970703125	392.1799316406251	-665.1014404296876	1119.42138671875	442.5637512207032	-666.8427124023439	1113.1572265625	366.1396789550781	-689.2153320312501	1105.153686523438	399.2871398925782	-683.5137939453127	866.9395141601565	485.1018371582032	-747.4160156250002	900.5360107421877	484.7449645996094	-720.8354492187502	780.313903808594	516.8403930664062	-794.5242309570316	831.245544433594	467.4644470214844	
55	0.54	-386.1809692382814	908.2789306640627	106.7416381835937	-588.7908325195314	975.713562011719	185.9899597167968	-591.0844726562501	962.9448852539065	284.4595031738281	-381.7008056640626	924.440612792969	335.79052734375	-482.1848754882814	857.8681640625002	26.3594360351562	-552.8225097656251	448.7513732910157	71.27951812744135	-561.7775878906251	436.7200012207032	205.7178039550781	-608.1710205078126	412.4736328125001	67.89214324951166	-566.4594116210939	366.1599121093751	114.3968887329101	-861.0486450195315	173.6266326904297	109.1595993041991	-821.5503540039065	170.2877502441407	196.9581146240234	-914.5007934570315	181.3394470214844	154.5912475585937	-814.3613281250002	48.19547271728517	226.3510131835937	-794.3309326171877	41.97325515747071	173.6569519042968	-828.1629638671877	36.90732574462891	119.3469543457031	-472.752655029297	840.9385986328127	430.8411560058594	-312.140838623047	461.7983703613282	348.0371398925781	-326.0991821289063	452.6116027832032	211.5651245117188	-317.1264953613282	401.2778320312501	350.5926818847656	-261.0554504394532	403.6634216308595	288.4928588867188	-266.8536987304689	65.87677001953126	296.4718017578125	-251.1351165771485	84.21239471435548	206.4969482421875	-305.542205810547	16.99737930297852	240.0144958496094	-110.7447204589844	46.03949356079102	214.397689819336	-107.6601181030274	58.08778381347658	270.9582824707032	-144.0177612304688	31.60187911987305	318.6832275390626	-554.5316772460939	1455.391479492188	225.7428436279297	-612.5659179687501	1239.557495117188	218.6957550048828	-380.3172607421876	1143.86669921875	228.9660186767578	-428.3646545410157	1371.634033203125	227.9013519287109	-618.4898071289064	1276.598266601563	137.3128662109374	-582.5147094726564	1401.494506835938	110.4063720703125	-544.3556518554689	1396.677490234375	48.18898773193354	-497.086151123047	1417.79248046875	43.88270187377924	-428.1064453125001	1088.598266601563	-24.84151840209967	-456.3381652832032	1070.129760742188	37.12303924560542	-432.8435058593751	1047.085815429688	9.312715530395456	-176.2806701660157	1114.373901367188	26.60703086853026	-185.4781799316407	1057.493041992188	-15.55318260192874	-89.23528289794923	1126.346069335938	21.5782356262207	-101.2967529296875	1028.0615234375	-4.810081005096449	-625.4692382812501	1267.40576171875	285.5868225097656	-592.1316528320314	1400.812866210938	318.641357421875	-556.8217163085939	1407.46875	382.87939453125	-520.1315917968751	1423.318115234375	394.0667419433594	-644.2340087890626	1120.048461914063	443.7467956542969	-647.0923461914064	1114.775390625	367.4368591308594	-668.8931274414064	1106.192993164063	400.6560668945313	-662.5079345703127	867.5592041015627	485.0869750976563	-726.4356689453127	901.0608520507815	485.191650390625	-699.5627441406252	780.4348754882815	516.1338500976562	-773.4425048828128	831.5708007812502	467.3963623046875	
56	0.55	-368.6882934570313	908.5433349609377	108.7765655517578	-571.2526855468751	976.0758056640627	185.3177795410156	-573.2995605468751	965.168640136719	284.3604736328125	-363.7191162109376	927.9820556640627	336.7944030761719	-462.6732482910157	855.9236450195315	27.66751861572261	-524.1605224609376	446.9898071289064	69.72920989990229	-529.9813842773439	432.2860412597657	204.0183410644531	-579.7377929687501	411.7837219238282	66.23336029052729	-538.6994018554689	364.1762084960938	112.1216354370117	-841.165466308594	184.1979522705078	108.0122680664062	-801.0832519531252	177.5075225830078	195.2773742675781	-893.5618896484377	195.4740447998047	153.8424987792968	-803.197448730469	54.05828094482423	224.3045043945312	-784.4487915039065	45.33004760742188	171.1215362548828	-818.309265136719	43.47074890136719	118.1770095825195	-454.0491333007814	845.4014282226565	432.5227050781251	-298.446990966797	462.8846740722657	348.30859375	-312.8041381835938	454.5400695800782	212.2897491455078	-304.7901611328126	402.1602783203126	351.0690307617188	-249.5306549072266	403.1722412109376	288.60791015625	-265.8452758789064	65.27915191650392	296.4054260253906	-250.0055389404298	82.67527008056642	206.3427886962891	-306.6402282714845	17.30569648742676	240.2761993408203	-110.333351135254	39.21125793457032	213.6442108154297	-106.3349227905274	51.81490325927736	270.1318359375001	-143.9681854248047	27.3142433166504	318.7786254882813	-536.8954467773439	1457.391357421875	227.5597229003906	-595.1821289062501	1241.4921875	220.572769165039	-363.1221008300782	1145.990844726563	228.9403839111328	-410.793914794922	1373.567749023438	228.5760650634766	-602.1439819335939	1278.79443359375	139.5651550292968	-566.0817260742189	1403.756225585938	112.577880859375	-528.6622924804689	1398.806030273438	50.01762008666987	-481.259246826172	1419.488403320313	44.98090362548823	-417.8362426757814	1088.749755859375	-22.52658271789556	-445.8038330078126	1071.342895507813	39.99266433715815	-422.6696777343751	1047.391723632813	12.28734588623042	-165.51513671875	1112.982543945313	27.90110015869139	-175.4444274902344	1055.812744140625	-13.7254390716553	-78.36006927490236	1124.063354492188	22.631441116333	-91.49535369873048	1025.704467773438	-2.813618421554577	-607.6293945312501	1269.699951171875	288.25341796875	-573.3655395507814	1402.879516601563	321.2187805175781	-537.2612304687501	1409.1826171875	385.0982666015626	-500.3201599121095	1424.892822265625	395.8402709960938	-622.8903198242189	1120.672607421875	445.1193847656251	-627.2824707031251	1116.485595703125	368.9849243164062	-648.3095703125001	1107.246704101563	402.3599243164063	-640.3789062500002	868.1043090820315	484.9667663574219	-704.3367309570315	901.3999023437502	485.9915161132812	-676.7727050781252	780.3892211914065	515.4257202148438	-751.2473754882815	831.6849365234377	467.9856262207031	
57	0.5600000000000001	-351.5388183593751	909.0588378906252	110.6715316772461	-554.0693359375001	976.7097778320315	184.8039855957031	-555.8383789062501	967.6160888671877	284.2869567871094	-346.0869750976564	931.645690917969	337.8460388183594	-443.5342102050782	854.3740234375002	28.9901962280273	-494.7253723144532	445.613494873047	68.21894073486324	-497.5188293457032	428.3569641113282	202.3761901855469	-550.1747436523439	411.375213623047	64.64121246337885	-509.9095153808595	362.7173461914063	110.0512542724609	-819.134460449219	194.5663452148438	107.332290649414	-778.4480590820315	184.658935546875	194.0137023925781	-870.4597778320315	208.6443939208985	153.6886596679687	-788.3775024414065	59.93710708618165	221.6833801269531	-770.9317016601565	49.25889205932619	167.9490051269531	-804.9610595703127	50.82796478271486	116.435676574707	-435.8892517089845	849.839782714844	434.1088256835938	-285.7052612304689	463.8807678222657	348.5927734375	-300.7439575195313	456.2767944335939	213.0128326416016	-293.3988342285157	402.9910888671876	351.5672607421875	-238.9822540283204	402.701873779297	288.7593994140625	-265.0034179687501	64.87448120117189	296.361572265625	-249.1616821289063	81.50975036621095	206.2462463378907	-307.5687255859376	17.62644004821778	240.5611572265625	-110.2284164428712	33.61257553100587	212.9536590576172	-105.3403778076172	46.7959098815918	269.3463745117188	-144.0387725830079	24.06639099121094	319.0108032226563	-519.3135375976564	1459.596801757813	229.243896484375	-577.9533691406251	1243.666748046875	222.3620910644531	-346.1524658203126	1148.171875	228.771240234375	-393.3006896972657	1375.651000976563	229.1499176025391	-585.8828735351564	1281.249877929688	141.6733245849609	-549.6611938476564	1406.268676757813	114.6239852905273	-512.9906005859376	1401.21484375	51.73791885375972	-465.4295043945314	1421.412963867188	46.00131988525386	-408.0970764160157	1089.10302734375	-20.2206535339356	-435.646453857422	1072.945922851563	42.93173599243159	-413.1844787597657	1047.987670898438	15.26088714599605	-155.010986328125	1110.1572265625	28.74355506896972	-166.1588287353516	1052.744262695313	-12.28196716308596	-67.60456848144533	1119.408203125	23.3531436920166	-82.80216217041017	1021.262817382813	-1.160879373550425	-589.9013061523439	1272.1787109375	290.7208862304688	-554.7161865234376	1405.1474609375	323.6272277832031	-517.8155517578126	1411.083129882813	387.1697692871094	-480.612518310547	1426.649291992188	397.4713745117188	-601.1539916992189	1121.2802734375	446.6598510742188	-607.4118041992189	1118.207397460938	370.757080078125	-627.5015869140626	1108.263427734375	404.3616638183594	-617.1601562500002	868.5606689453127	484.7610778808594	-681.1525878906252	901.5181274414065	487.1264343261719	-652.489196777344	780.194274902344	514.7682495117188	-727.944519042969	831.5430297851565	469.2261352539062	
